<svg width="200" height="200" viewBox="0 0 200 200" fill="none" xmlns="http://www.w3.org/2000/svg">
  <circle cx="100" cy="100" r="85" stroke="white" stroke-width="6"/>
  <circle cx="100" cy="100" r="70" stroke="white" stroke-width="4" stroke-dasharray="4 4"/>
  
  <!-- Diagram in the center -->
  <path d="M60 70 L140 70 L140 130 L60 130 Z" stroke="white" stroke-width="4" fill="none"/>
  <path d="M70 80 L130 80 L130 120 L70 120 Z" stroke="white" stroke-width="2" fill="none"/>
  
  <!-- Connecting elements -->
  <path d="M100 60 L100 80" stroke="white" stroke-width="2"/>
  <path d="M100 120 L100 140" stroke="white" stroke-width="2"/>
  <path d="M60 100 L70 100" stroke="white" stroke-width="2"/>
  <path d="M130 100 L140 100" stroke="white" stroke-width="2"/>
  
  <!-- Decoration elements -->
  <circle cx="100" cy="60" r="3" fill="white"/>
  <circle cx="100" cy="140" r="3" fill="white"/>
  <circle cx="60" cy="100" r="3" fill="white"/>
  <circle cx="140" cy="100" r="3" fill="white"/>
  
  <!-- Center element -->
  <path d="M85 95 L115 95 L115 105 L85 105 Z" fill="white"/>
  
  <!-- Text at bottom -->
  <text x="100" y="170" text-anchor="middle" fill="white" font-family="Arial" font-weight="bold" font-size="12">HMTI UIN MALANG</text>
</svg>